<mxfile host="app.diagrams.net" modified="2023-06-19T15:24:51.205Z" agent="Mozilla/5.0 (Windows NT 10.0; Win64; x64) AppleWebKit/537.36 (KHTML, like Gecko) Chrome/114.0.0.0 Safari/537.36" etag="u5R06hoh6UxQhJOweu--" version="21.5.0" type="device">
  <diagram name="Halaman-1" id="m5636bko589Hu7lF0LxV">
    <mxGraphModel dx="1687" dy="858" grid="1" gridSize="10" guides="1" tooltips="1" connect="1" arrows="1" fold="1" page="1" pageScale="1" pageWidth="827" pageHeight="1169" math="0" shadow="0">
      <root>
        <mxCell id="0" />
        <mxCell id="1" parent="0" />
        <mxCell id="tpZoZdnBv4GD4pHbtAjn-1" value="Activity Diagram Melakukan Ubah Profil Akun" style="swimlane;childLayout=stackLayout;resizeParent=1;resizeParentMax=0;startSize=20;html=1;" vertex="1" parent="1">
          <mxGeometry x="230" y="140" width="430" height="580" as="geometry" />
        </mxCell>
        <mxCell id="tpZoZdnBv4GD4pHbtAjn-2" value="User" style="swimlane;startSize=20;html=1;align=center;" vertex="1" parent="tpZoZdnBv4GD4pHbtAjn-1">
          <mxGeometry y="20" width="220" height="560" as="geometry" />
        </mxCell>
        <mxCell id="tpZoZdnBv4GD4pHbtAjn-5" value="" style="ellipse;html=1;shape=startState;fillColor=#000000;strokeColor=#ff0000;" vertex="1" parent="tpZoZdnBv4GD4pHbtAjn-2">
          <mxGeometry x="95" y="30" width="30" height="30" as="geometry" />
        </mxCell>
        <mxCell id="tpZoZdnBv4GD4pHbtAjn-6" value="" style="edgeStyle=orthogonalEdgeStyle;html=1;verticalAlign=bottom;endArrow=open;endSize=8;strokeColor=#000000;rounded=0;" edge="1" source="tpZoZdnBv4GD4pHbtAjn-5" parent="tpZoZdnBv4GD4pHbtAjn-2">
          <mxGeometry relative="1" as="geometry">
            <mxPoint x="110" y="120" as="targetPoint" />
          </mxGeometry>
        </mxCell>
        <mxCell id="tpZoZdnBv4GD4pHbtAjn-7" value="Login" style="rounded=1;whiteSpace=wrap;html=1;arcSize=40;fontColor=#000000;fillColor=default;strokeColor=default;" vertex="1" parent="tpZoZdnBv4GD4pHbtAjn-2">
          <mxGeometry x="50" y="120" width="120" height="40" as="geometry" />
        </mxCell>
        <mxCell id="tpZoZdnBv4GD4pHbtAjn-9" value="Memilih Menu Profil" style="rounded=1;whiteSpace=wrap;html=1;arcSize=40;fontColor=#000000;fillColor=default;strokeColor=default;" vertex="1" parent="tpZoZdnBv4GD4pHbtAjn-2">
          <mxGeometry x="50" y="190" width="120" height="40" as="geometry" />
        </mxCell>
        <mxCell id="tpZoZdnBv4GD4pHbtAjn-12" value="Melengkapi form profil" style="rounded=1;whiteSpace=wrap;html=1;arcSize=40;fontColor=#000000;fillColor=default;strokeColor=default;" vertex="1" parent="tpZoZdnBv4GD4pHbtAjn-2">
          <mxGeometry x="50" y="260" width="120" height="40" as="geometry" />
        </mxCell>
        <mxCell id="tpZoZdnBv4GD4pHbtAjn-18" value="Menekan tombol kembali" style="rounded=1;whiteSpace=wrap;html=1;arcSize=40;fontColor=#000000;fillColor=default;strokeColor=default;" vertex="1" parent="tpZoZdnBv4GD4pHbtAjn-2">
          <mxGeometry x="10" y="340" width="90" height="30" as="geometry" />
        </mxCell>
        <mxCell id="tpZoZdnBv4GD4pHbtAjn-19" value="Menekan tombol save" style="rounded=1;whiteSpace=wrap;html=1;arcSize=40;fontColor=#000000;fillColor=default;strokeColor=default;" vertex="1" parent="tpZoZdnBv4GD4pHbtAjn-2">
          <mxGeometry x="120" y="340" width="90" height="30" as="geometry" />
        </mxCell>
        <mxCell id="tpZoZdnBv4GD4pHbtAjn-3" value="Sistem" style="swimlane;startSize=20;html=1;" vertex="1" parent="tpZoZdnBv4GD4pHbtAjn-1">
          <mxGeometry x="220" y="20" width="210" height="560" as="geometry" />
        </mxCell>
        <mxCell id="tpZoZdnBv4GD4pHbtAjn-10" value="Menampilkan halaman profil" style="rounded=1;whiteSpace=wrap;html=1;arcSize=40;fontColor=#000000;fillColor=default;strokeColor=default;" vertex="1" parent="tpZoZdnBv4GD4pHbtAjn-3">
          <mxGeometry x="40" y="190" width="120" height="40" as="geometry" />
        </mxCell>
        <mxCell id="tpZoZdnBv4GD4pHbtAjn-15" value="Menampilkan landing page" style="rounded=1;whiteSpace=wrap;html=1;arcSize=40;fontColor=#000000;fillColor=default;strokeColor=default;" vertex="1" parent="tpZoZdnBv4GD4pHbtAjn-3">
          <mxGeometry x="40" y="120" width="120" height="40" as="geometry" />
        </mxCell>
        <mxCell id="tpZoZdnBv4GD4pHbtAjn-32" value="" style="edgeStyle=orthogonalEdgeStyle;rounded=0;orthogonalLoop=1;jettySize=auto;html=1;" edge="1" parent="tpZoZdnBv4GD4pHbtAjn-3" source="tpZoZdnBv4GD4pHbtAjn-29" target="tpZoZdnBv4GD4pHbtAjn-31">
          <mxGeometry relative="1" as="geometry" />
        </mxCell>
        <mxCell id="tpZoZdnBv4GD4pHbtAjn-29" value="Menampilkan notif berhasil ubah profil" style="rounded=1;whiteSpace=wrap;html=1;arcSize=40;fontColor=#000000;fillColor=default;strokeColor=default;" vertex="1" parent="tpZoZdnBv4GD4pHbtAjn-3">
          <mxGeometry x="40" y="335" width="110" height="40" as="geometry" />
        </mxCell>
        <mxCell id="tpZoZdnBv4GD4pHbtAjn-31" value="" style="ellipse;html=1;shape=endState;fillColor=#000000;strokeColor=#ff0000;" vertex="1" parent="tpZoZdnBv4GD4pHbtAjn-3">
          <mxGeometry x="80" y="470" width="30" height="30" as="geometry" />
        </mxCell>
        <mxCell id="tpZoZdnBv4GD4pHbtAjn-11" value="" style="edgeStyle=orthogonalEdgeStyle;rounded=0;orthogonalLoop=1;jettySize=auto;html=1;" edge="1" parent="tpZoZdnBv4GD4pHbtAjn-1" source="tpZoZdnBv4GD4pHbtAjn-9" target="tpZoZdnBv4GD4pHbtAjn-10">
          <mxGeometry relative="1" as="geometry" />
        </mxCell>
        <mxCell id="tpZoZdnBv4GD4pHbtAjn-16" value="" style="edgeStyle=orthogonalEdgeStyle;rounded=0;orthogonalLoop=1;jettySize=auto;html=1;" edge="1" parent="tpZoZdnBv4GD4pHbtAjn-1" source="tpZoZdnBv4GD4pHbtAjn-7" target="tpZoZdnBv4GD4pHbtAjn-15">
          <mxGeometry relative="1" as="geometry" />
        </mxCell>
        <mxCell id="tpZoZdnBv4GD4pHbtAjn-17" style="edgeStyle=orthogonalEdgeStyle;rounded=0;orthogonalLoop=1;jettySize=auto;html=1;entryX=0.5;entryY=0;entryDx=0;entryDy=0;" edge="1" parent="tpZoZdnBv4GD4pHbtAjn-1" source="tpZoZdnBv4GD4pHbtAjn-15" target="tpZoZdnBv4GD4pHbtAjn-9">
          <mxGeometry relative="1" as="geometry">
            <Array as="points">
              <mxPoint x="320" y="190" />
              <mxPoint x="110" y="190" />
            </Array>
          </mxGeometry>
        </mxCell>
        <mxCell id="tpZoZdnBv4GD4pHbtAjn-27" style="edgeStyle=orthogonalEdgeStyle;rounded=0;orthogonalLoop=1;jettySize=auto;html=1;entryX=1;entryY=0.5;entryDx=0;entryDy=0;" edge="1" parent="tpZoZdnBv4GD4pHbtAjn-1" source="tpZoZdnBv4GD4pHbtAjn-18" target="tpZoZdnBv4GD4pHbtAjn-15">
          <mxGeometry relative="1" as="geometry">
            <Array as="points">
              <mxPoint x="55" y="460" />
              <mxPoint x="400" y="460" />
              <mxPoint x="400" y="160" />
            </Array>
          </mxGeometry>
        </mxCell>
        <mxCell id="tpZoZdnBv4GD4pHbtAjn-30" value="" style="edgeStyle=orthogonalEdgeStyle;rounded=0;orthogonalLoop=1;jettySize=auto;html=1;" edge="1" parent="tpZoZdnBv4GD4pHbtAjn-1" source="tpZoZdnBv4GD4pHbtAjn-19" target="tpZoZdnBv4GD4pHbtAjn-29">
          <mxGeometry relative="1" as="geometry" />
        </mxCell>
        <mxCell id="tpZoZdnBv4GD4pHbtAjn-65" style="edgeStyle=orthogonalEdgeStyle;rounded=0;orthogonalLoop=1;jettySize=auto;html=1;entryX=0.5;entryY=0;entryDx=0;entryDy=0;" edge="1" parent="tpZoZdnBv4GD4pHbtAjn-1" source="tpZoZdnBv4GD4pHbtAjn-10" target="tpZoZdnBv4GD4pHbtAjn-12">
          <mxGeometry relative="1" as="geometry">
            <Array as="points">
              <mxPoint x="320" y="260" />
              <mxPoint x="110" y="260" />
            </Array>
          </mxGeometry>
        </mxCell>
        <mxCell id="tpZoZdnBv4GD4pHbtAjn-21" value="" style="endArrow=none;html=1;rounded=0;" edge="1" parent="1">
          <mxGeometry width="50" height="50" relative="1" as="geometry">
            <mxPoint x="280" y="480" as="sourcePoint" />
            <mxPoint x="400" y="480" as="targetPoint" />
          </mxGeometry>
        </mxCell>
        <mxCell id="tpZoZdnBv4GD4pHbtAjn-23" value="" style="endArrow=none;html=1;rounded=0;entryX=0.5;entryY=1;entryDx=0;entryDy=0;" edge="1" parent="1" target="tpZoZdnBv4GD4pHbtAjn-12">
          <mxGeometry width="50" height="50" relative="1" as="geometry">
            <mxPoint x="340" y="480" as="sourcePoint" />
            <mxPoint x="420" y="470" as="targetPoint" />
          </mxGeometry>
        </mxCell>
        <mxCell id="tpZoZdnBv4GD4pHbtAjn-24" value="" style="endArrow=classic;html=1;rounded=0;entryX=0.441;entryY=-0.008;entryDx=0;entryDy=0;entryPerimeter=0;" edge="1" parent="1" target="tpZoZdnBv4GD4pHbtAjn-18">
          <mxGeometry width="50" height="50" relative="1" as="geometry">
            <mxPoint x="280" y="480" as="sourcePoint" />
            <mxPoint x="420" y="470" as="targetPoint" />
          </mxGeometry>
        </mxCell>
        <mxCell id="tpZoZdnBv4GD4pHbtAjn-26" value="" style="endArrow=classic;html=1;rounded=0;entryX=0.556;entryY=0.014;entryDx=0;entryDy=0;entryPerimeter=0;" edge="1" parent="1" target="tpZoZdnBv4GD4pHbtAjn-19">
          <mxGeometry width="50" height="50" relative="1" as="geometry">
            <mxPoint x="400" y="480" as="sourcePoint" />
            <mxPoint x="420" y="470" as="targetPoint" />
          </mxGeometry>
        </mxCell>
      </root>
    </mxGraphModel>
  </diagram>
</mxfile>
